<?xml version="1.0" encoding="UTF-8"?>
<!DOCTYPE svg PUBLIC "-//W3C//DTD SVG 1.1//EN" "http://www.w3.org/Graphics/SVG/1.1/DTD/svg11.dtd">
<svg xmlns="http://www.w3.org/2000/svg" xml:space="preserve" width="75.2106mm" height="17.9237mm" version="1.1" style="shape-rendering:geometricPrecision; text-rendering:geometricPrecision; image-rendering:optimizeQuality; fill-rule:evenodd; clip-rule:evenodd"
viewBox="0 0 1181.45 281.55"
 xmlns:xlink="http://www.w3.org/1999/xlink"
 xmlns:xodm="http://www.corel.com/coreldraw/odm/2003">
 <defs>
  <style type="text/css">
   <![CDATA[
    .fil0 {fill:#DDCFC2}
    .fil1 {fill:#DDCFC2;fill-rule:nonzero}
   ]]>
  </style>
 </defs>
 <g id="Слой_x0020_1">
  <metadata id="CorelCorpID_0Corel-Layer"/>
  <path class="fil0" d="M-0 15.38c0.75,3.09 -0.89,1.05 5.3,2.34 6.03,1.26 8.44,7.19 8.96,13.46 0.76,9.09 0.12,20.78 0.12,30.15l0.01 120.19c0.01,9.64 0.41,20.26 -0.12,29.78 -0.25,4.38 -1.69,8.77 -4.11,10.83 -1.5,1.28 -2.93,2.12 -4.82,2.58 -5.78,1.42 -4.87,-0.61 -5.27,2.76 0.73,0.49 0.19,0.3 1.34,0.56l50.97 0.1c3.79,-0.73 -2.81,0.98 0.88,-0.26l0.81 -0.4c-0.08,-3.44 -1.56,-2.06 -5.23,-2.4 -1.57,-0.14 -1.49,-0.32 -2.52,-1.11 -3.7,-2.83 -5.25,-3.37 -6.13,-11.65 -0.68,-6.37 -0.36,-80.78 -0.09,-86.61 9.27,1.34 19.57,1.97 29.9,1.42 6.05,-0.33 7.04,-1.77 13.77,0.35 14.96,4.72 22.7,22.59 27.21,35.82 1.06,3.1 2.33,4.41 4.28,11.81 3.13,11.85 6.95,23.57 12.69,34.31 9.54,17.83 21.97,22.95 42.5,19.46 2.13,-0.36 4.65,-0.91 6.48,-1.53 2.11,-0.72 3.91,-1.56 6.02,-2.04 -0.09,-6.66 -2.24,-4.52 -7.86,-4.24 -15.34,0.77 -19.1,-5.62 -24.87,-16.8 -0.84,-1.62 -1.5,-2.1 -2.14,-3.81 -1.17,-3.09 -1.87,-6.22 -2.99,-9.19l-3.33 -8.71c-2.14,-7.42 -2.14,-10.22 -5.98,-17.78 -1.44,-2.84 -2.11,-5.43 -3.7,-8.39 -3.93,-7.34 -4.54,-8.23 -9.45,-14.79 -4.74,-6.34 -9.88,-8.93 -12.53,-11.23 -2.84,-2.47 -8.4,-4.31 -12.25,-5.85 -0.96,-0.38 -1.65,-0.48 -2.26,-0.71 -2.22,-0.82 -1.1,0.42 -1.85,-1.37 0.23,-0.16 16.49,-5.97 23.02,-11.41 23.53,-19.61 33.12,-33.72 40.8,-63.75 1.6,-6.27 2.21,-13.43 3.36,-19.89 1.95,-10.94 8.87,-8.79 12.7,-10.36l0.02 -2.71c-4.58,-0.57 -36.49,-0.15 -46.02,-0.11 -4.14,0.02 -6.12,-0.77 -6.46,1.18 0.63,3.07 -0.82,1.16 1.87,1.88 2.68,0.71 7.99,0.09 10.38,6.04 6.65,16.57 -13.53,65.19 -31.92,79.61l-3.51 2.98c-1.7,1.85 -10.26,7.28 -12.06,8.06 -9.45,4.09 -7.19,4.69 -20.18,6.5 -5.94,0.83 -20.07,0.76 -25.27,-0.55 -1.55,-3.21 -0.55,-51.08 -0.55,-59.08 -0,-9.53 -2.21,-36.24 3.98,-40.75 1.71,-1.25 3.08,-1.97 5.07,-2.32 3.88,-0.68 4.96,0.5 5.14,-3.19 -1.58,-0.53 -42.9,-0.79 -51.28,-0.44 -3.75,0.16 -1.78,0.15 -2.85,1.25zm251.76 5.02c6.82,-0.01 11.52,0.44 17.98,1.9 7.81,1.76 21.21,8.25 27.25,12.98 1.35,1.05 2.18,1.94 3.59,2.99 6.92,5.19 8.29,7.5 13.58,13.2 5.54,5.96 12.26,17.1 15.85,24.49l5.88 13.83c1.42,3.2 6.6,22.65 7.1,26.62 2.31,18.25 3.29,40.02 -1.99,57.48 -1.26,4.15 -3.02,9.06 -4.77,12.81l-6.94 11.23c-5.09,6.58 -6.82,8.72 -13.56,13.28 -1.8,1.22 -3.03,2.55 -5.32,3.7 -11.25,5.64 -19.29,7.08 -32.88,7.08 -5.11,0 -15.54,-1.18 -19.75,-2.68l-15.39 -6.77c-5.96,-3.47 -10.85,-7.42 -16.17,-11.53 -1.25,-0.97 -1.62,-1.63 -2.71,-2.83 -2.59,-2.86 -1.51,-0.63 -5.6,-5.98 -1.98,-2.59 -1.17,-0.46 -5.05,-6.12 -1.46,-2.12 -2.85,-4.27 -4.45,-6.66 -7.81,-11.65 -8.38,-15.92 -12.85,-26.58 -3.56,-8.47 -3,-7.9 -5.28,-16.7 -3.99,-15.4 -4.85,-29.59 -3.92,-46.5 0.67,-12.1 2.57,-17.08 5.9,-27.14 2.87,-8.65 1.34,-3.11 3.59,-7.98 4.83,-10.44 4.53,-7.5 8.7,-13.57 2.3,-3.35 8.57,-8.1 12,-10.78 3.47,-2.71 10.29,-5.68 15.19,-7.07 7.49,-2.12 10.98,-2.67 20.03,-2.68zm-87.57 102.54c0.01,14.08 1.86,26.92 6.25,39.79 0.72,2.1 1.25,3 1.87,5.17 3,10.48 4.75,10.29 8.51,17.89 0.88,1.78 1.31,2.92 2.43,4.17 1.38,1.55 1.78,1.79 2.87,3.69l6.14 7.49c6.8,7.5 19.46,17.52 31.17,21.9 3.16,1.18 5.97,3.03 9.32,3.87 14.59,3.64 17.68,5 34.68,4.99 4.73,-0 7.34,-0.5 11.57,-0.9 7.75,-0.73 6.37,-1.28 11.14,-1.98 2.73,-0.4 7.59,-1.71 10.24,-2.51 5.88,-1.78 20.29,-9.76 25.34,-13.51 6.6,-4.9 14.97,-12.89 19.25,-19.62 1.56,-2.45 2.6,-2.38 5.38,-7.69 2.69,-5.14 6.67,-11.68 8.73,-17.4 2.4,-6.68 4.47,-12.55 5.55,-20.11 0.56,-3.89 1.6,-6.91 2.04,-11.12 0.9,-8.54 0.74,-18.57 0.47,-27.25 -0.21,-6.72 -4.79,-27.03 -6.92,-32.8 -0.7,-1.91 -1.15,-2.6 -1.93,-4.6 -1.64,-4.22 -9.21,-18.89 -11.71,-21.55 -3.12,-3.32 -0.78,-1.97 -6.26,-7.35 -1.46,-1.43 -1.52,-2.39 -2.83,-3.73 -1.09,-1.11 -2.52,-2.24 -3.45,-3.13 -2.79,-2.66 -4.07,-3.73 -7.15,-5.97 -4.81,-3.51 0.1,-0.78 -7.71,-5.4 -1.55,-0.92 -2.34,-1.76 -3.91,-2.57l-4.74 -2.34c-6.84,-2.9 -12.01,-5.43 -19.75,-6.97 -7.67,-1.52 -16.73,-2.34 -24.86,-2.35 -8,-0 -27.73,1.92 -34.83,4.92 -6.71,2.84 -21.48,9.24 -26.29,14.05 -1.6,1.6 -1.9,1.78 -3.57,2.94 -2.44,1.69 -11.53,11.05 -13.45,13.34 -1.15,1.37 -1.51,2.66 -2.56,4.06 -0.92,1.24 -1.81,2.08 -2.85,3.72 -0.98,1.54 -1.63,2.73 -2.43,4.15 -1.17,2.06 -3.88,6.32 -4.69,8.32 -1.26,3.07 -2.5,6.67 -3.68,10.21 -1.09,3.26 -2.49,6 -3.31,9.69 -2.92,13.12 -4.07,22.1 -4.05,36.51zm572.4 54.4c-3.61,4.01 -10.9,10.81 -15.49,13.8 -4.12,2.69 -5.22,4.65 -12.08,7.67 -2.79,1.23 -0.15,1.29 -6.46,3.63 -5.52,2.04 -14.81,6.69 -21.37,8.19 -2.83,0.65 -5.14,1.5 -8,2.13 -17.93,3.94 -35.42,2.52 -50.93,-4.59 -8.58,-3.93 -14.78,-13.15 -16.46,-23.02 -2.45,-14.35 3.02,-23.65 5.73,-33.29 8.81,-31.39 23.65,-63.7 33.54,-95.39l6.06 -14.05c5.98,-12.42 20.27,-19.09 30.73,-7.99 1.27,1.35 3.19,3.74 4.3,5.33l10.78 25.03c3.04,4.98 3.63,12.04 6.21,17.61l2.93 7.08c2.17,6.45 3.95,9.37 5.4,14.18 1.52,5.06 3.45,10.62 5.22,15.12l11.76 32.78c0.7,2.08 2.58,4.88 4.24,10.83 0.65,2.32 1.65,5.61 2.53,7.67 0.66,1.54 3.55,4.86 1.37,7.27zm3.18 6.03c1.48,1.07 0.98,0.47 1.64,2.65l7.85 21.37c1.64,3.25 3.06,9.79 1.03,13.48 -0.96,1.74 -3,2.65 -4.96,3.5 -1.2,0.52 -1.83,0.62 -3.12,0.73 -3.2,0.29 -2.67,-0.74 -3.27,1.86 0.28,1.91 5.57,1.19 7.91,1.19l43.45 -0.06c0.32,-4.59 -2.12,-3.91 -5.69,-7.06 -0.59,-0.52 -5.06,-7.18 -5.36,-7.76 -1.53,-2.91 -3.96,-11.69 -6.33,-16.4 -0.75,-1.48 -0.51,-0.64 -1.02,-2.32 -1.06,-3.49 -2.13,-6.44 -3.12,-9.88 -9.41,-23.41 -18.01,-46.97 -26.53,-70.79 -0.81,-1.55 -1.36,-2.97 -1.99,-4.54 -1.25,-3.15 -2.45,-6.79 -3.39,-9.84 -1.24,-4.01 -2.46,-5.55 -3.72,-9.23l-5.23 -14.15c-0.65,-1.57 -1.04,-3.1 -1.66,-4.87 -1.36,-3.87 -2.22,-6.18 -3.65,-9.45l-11.39 -27.52c-2.19,-3.76 -8.14,-11.75 -11.54,-14.67l-7.58 -5.6c-10.96,-5.42 -15.93,-4.15 -25.71,0.08 -2.27,0.98 -2.23,1.34 -3.86,2.72 -1.31,1.12 -2.45,1.86 -3.69,2.89 -1.91,1.58 -1.6,1.66 -3.1,3.51 -3.95,4.88 -1.02,0.4 -5.45,7.17l-3.52 6.07c-0.48,0.95 -0.63,1.42 -1.14,2.46 -11.96,32.23 -23.59,63.3 -34.51,95.87 -3.29,9.85 -6.88,16.41 -10.32,28.46l-5.19 13.92 -3.69 15.95c-0.65,7.34 0.29,17.6 3.78,22.39 0.92,1.26 4.7,6.28 5.62,6.94 1.32,0.96 2.73,1.61 3.99,2.61 5.75,4.59 19.18,6.64 26.43,6.64 18.47,-0.02 30.27,-2.04 44.54,-7.61 10.33,-4.03 6.8,-2.04 18.29,-7.47l8.63 -4.49c2.68,-1.61 5.37,-2.95 8.51,-4.7 1.61,-0.89 2.06,-1.78 3.31,-2.7 1.2,-0.88 2.73,-1.57 4.09,-2.52 2.61,-1.82 4.62,-3.77 7.27,-5.9 4.54,-3.64 5.98,-5.91 8.51,-7.72 3.31,-2.37 1.86,-4.02 4.92,-5.26zm-330.65 -134.85c-17.94,21.46 -23.61,47.15 -23.58,74.42 0.04,39.98 19.48,85.23 59.23,100.1 3.16,1.18 5.97,3.03 9.31,3.87 14.6,3.64 17.68,5 34.68,4.99 4.73,-0 7.33,-0.5 11.57,-0.9 7.75,-0.73 6.37,-1.28 11.14,-1.98 2.73,-0.4 7.59,-1.71 10.23,-2.51 5.88,-1.78 20.29,-9.76 25.34,-13.51 6.59,-4.9 14.97,-12.89 19.25,-19.62 1.56,-2.45 2.6,-2.38 5.38,-7.69 2.69,-5.14 6.67,-11.68 8.73,-17.4 6.83,-19.04 -9.26,-23.49 -18.06,5.62 -1.26,4.15 -3.02,9.06 -4.77,12.81l-6.94 11.23c-5.09,6.58 -6.82,8.72 -13.57,13.28 -1.8,1.22 -3.03,2.55 -5.32,3.7 -11.25,5.64 -19.28,7.08 -32.88,7.08 -5.11,0 -15.54,-1.18 -19.75,-2.68l-15.39 -6.77c-28.25,-16.43 -44.13,-45.6 -52.11,-76.42 -14.75,-56.98 1.81,-96.22 25.5,-103.39 60.08,-18.2 110.51,139.05 180.03,14.72 2.4,-4.3 3.12,-7.98 5.06,-11.98 -5.24,-4.11 -4.93,-1.1 -8.24,3.46 -15.45,21.26 -36.48,24.76 -55.78,8.33 -45.4,-38.65 -113,-41.89 -149.08,1.26z"/>
 </g>
 <g id="Слой_x0020_1_0">
  <metadata id="CorelCorpID_1Corel-Layer"/>
  <path class="fil1" d="M1009.48 64.29c7.62,6.53 13.23,10.55 18.9,13.01 5.44,2.36 11.38,3.45 19.7,4.14 2.65,0.22 4.65,2.53 4.5,5.19l-0.24 4.17c-0.08,1.37 -0.65,2.52 -1.68,3.42 -1.04,0.9 -2.26,1.3 -3.63,1.18 -9.84,-0.81 -17.05,-2.18 -24.18,-5.27 -7.18,-3.11 -13.8,-7.79 -22.51,-15.26 -1.04,-0.89 -1.61,-2.03 -1.71,-3.39 -0.09,-1.36 0.32,-2.57 1.22,-3.59l2.76 -3.11c1.78,-2 4.84,-2.22 6.88,-0.47l0 -0zm-59.15 -14.89c12.35,16.5 26.78,29.8 42.21,39.92 16.25,10.65 33.58,17.72 50.72,21.24 2.59,0.53 4.29,3.01 3.86,5.62l-0.69 4.13c-0.23,1.37 -0.92,2.46 -2.06,3.24 -1.14,0.78 -2.41,1.04 -3.76,0.77 -18.91,-3.86 -37.95,-11.6 -55.74,-23.26 -16.71,-10.95 -32.36,-25.4 -45.79,-43.37 -0.82,-1.1 -1.13,-2.35 -0.92,-3.71 0.22,-1.36 0.89,-2.45 2.02,-3.24l3.38 -2.39c2.17,-1.53 5.17,-1.06 6.77,1.07l0 0zm176.65 172.75l24.7 26.05c4.51,3.96 7.72,5.09 9.78,4.35 1,-0.36 1.93,-1.25 2.76,-2.51 1.15,-1.74 2.01,-4.07 2.57,-6.75 1.98,-9.52 -0.12,-22.02 -7.32,-28.69 -8.87,-8.21 -22.33,-10.49 -31.8,-8.34 -2.45,0.56 -4.51,1.41 -5.98,2.52 -0.93,0.7 -1.54,1.46 -1.7,2.22 -0.48,2.3 1.36,5.88 6.69,10.85l0.3 0.3 -0 0zm-57.51 36.01l5.69 -35.21 0.08 -0.44c1.6,-7.12 1.11,-11.11 -0.58,-12.74 -0.57,-0.55 -1.5,-0.83 -2.65,-0.89 -1.82,-0.09 -4.02,0.38 -6.39,1.32 -9.01,3.55 -18.83,13.01 -21.53,24.79 -2.2,9.57 3.09,21.09 10.08,27.82 1.97,1.89 4,3.33 5.93,4.12 1.4,0.58 2.68,0.78 3.71,0.52 2.14,-0.55 4.17,-3.34 5.66,-9.29l-0 -0zm15.78 -84.05c-2.09,1.02 -4.42,1.63 -6.88,1.73l-3.32 19.3c3.54,0.57 6.72,2.04 9.31,4.54 5.07,4.87 7.34,13.22 4.57,25.71l-5.72 35.36 -0.11 0.57c-2.92,11.83 -8.79,17.85 -15.8,19.67 -4.12,1.07 -8.39,0.58 -12.53,-1.12 -3.61,-1.48 -7.13,-3.9 -10.32,-6.97 -9.95,-9.59 -17.37,-26.49 -14.03,-41.04 3.79,-16.51 17.49,-29.76 30.08,-34.71l0.31 -0.12 4.03 -26.83c-2.68,-2.97 -4.3,-6.87 -4.3,-11.15 0,-5.4 2.59,-10.21 6.62,-13.28l9 -94.93c0.33,-3.46 15.94,-19.99 14.62,-6.02l-5.28 55.77c9.62,-3.71 17.18,-10.42 22.68,-19.61 7.29,-12.18 11.69,-23.59 12.17,-43.39 0.08,-3.37 13.71,-15.41 13.46,-4.88 -0.13,5.29 -0.48,10.39 -1.06,15.28 1.42,2.4 7.91,18.18 7.92,18.15 5.47,3.8 9.93,8.55 13.44,14.01 9.05,14.07 11.83,32.85 9.69,51.8 -2.1,18.57 -8.93,37.5 -19.21,52.32 -1.82,2.62 -3.74,5.11 -5.77,7.46 10.48,0.86 21.73,4.86 30.11,12.61 10.96,10.15 14.36,28.27 11.55,41.79 -0.9,4.33 -2.45,8.31 -4.6,11.58 -2.47,3.74 -5.72,6.55 -9.73,7.99 -6.81,2.44 -15.03,0.78 -24.11,-7.35l-0.41 -0.38 -24.66 -26.01c-9.32,-8.76 -12.15,-16.94 -10.71,-23.82 0.55,-2.6 1.67,-4.92 3.25,-6.95l-24.28 -27.09 0 0zm9.46 -13.92c-0.07,1.02 -0.23,2.02 -0.48,2.99l25.03 27.94c5.13,-3.88 9.78,-8.94 13.84,-14.79 8.97,-12.93 14.95,-29.55 16.79,-45.9 1.72,-15.21 -0.15,-30 -6.55,-41.06 -0.49,11.16 -3.5,21.91 -8.38,31.66 -7.02,14.02 -17.94,25.97 -30.75,34.05 -3.06,1.93 -6.24,3.64 -9.5,5.11l0 0zm-13.2 -17.52c3.14,0.71 5.95,2.28 8.16,4.43 2.42,-1.13 4.78,-2.42 7.08,-3.87 10.72,-6.75 19.85,-16.74 25.71,-28.45 5.81,-11.6 8.4,-24.89 6.12,-38.39 -0.26,-1.54 -0.58,-3.08 -0.97,-4.63 -2,5.98 -4.47,11.46 -7.42,16.39 -8.36,13.95 -20.39,23.51 -36.12,27.6l-2.55 26.92 -0 -0zm-192.5 90.92c0.67,-2.71 1.45,-5.49 2.23,-8.3 2.67,-9.53 5.47,-19.53 3.43,-22.51 -0.33,-0.48 -9.84,1.23 -11,1.42 -6.67,1.07 -12.11,1.39 -17.2,0.32 -5.55,-1.17 -10.27,-3.83 -14.97,-8.66 -11.28,-11.61 -15.36,-32.5 -15.2,-54.84 0.19,-26.75 6.39,-56.17 13.35,-73.24 -1.86,-3.99 -2.8,-8.05 -2.94,-12.09 -0.3,-8.46 2.9,-16.59 8.47,-23.9 5.17,-6.78 12.45,-12.91 20.81,-17.92 13.34,-7.99 29.68,-13.23 44.69,-13.77 44.77,-1.6 69.23,15.35 90.48,30.06 13.28,9.2 25.16,17.42 39.86,18.41 2.53,0.17 4.5,2.21 4.58,4.75l0.13 4.2c0.04,1.42 -0.46,2.67 -1.47,3.66 -1.02,1 -2.27,1.47 -3.69,1.4 -18.6,-0.98 -32.18,-10.38 -47.36,-20.9 -19.48,-13.49 -41.91,-29.03 -82.04,-27.6 -12.66,0.45 -26.56,4.95 -38,11.8 -6.88,4.12 -12.78,9.05 -16.87,14.41 -3.68,4.82 -5.8,9.92 -5.62,14.91 0.09,2.5 0.76,5.05 2.12,7.63 0.58,0.06 2.32,0.11 4.33,0.16 8.35,0.23 18.92,0.53 28.1,14.04 16.73,24.66 34.99,46 55.33,64.59 19.15,17.49 40.15,32.52 63.46,45.54 2.34,1.31 3.2,4.26 1.93,6.61l-1.98 3.68c-0.65,1.2 -1.64,2.01 -2.95,2.39 -1.31,0.38 -2.58,0.24 -3.77,-0.43 -14.24,-7.95 -27.65,-16.62 -40.33,-26.1 -5.49,6.94 -9.19,15.56 -10.98,24.94 -2.15,11.26 -1.56,23.56 1.95,35.39 0.74,2.5 -0.59,5.13 -3.03,6.01l-3.93 1.42c-1.32,0.48 -2.63,0.4 -3.88,-0.23 -1.25,-0.63 -2.1,-1.64 -2.5,-2.98 -4.22,-14.07 -4.94,-28.74 -2.37,-42.19 2.2,-11.53 6.81,-22.21 13.72,-30.96 -5.04,-4.1 -9.96,-8.34 -14.77,-12.73 -21.1,-19.27 -40.06,-41.45 -57.47,-67.11 -5.14,-7.58 -11.72,-7.76 -16.91,-7.9 -1.95,-0.05 -3.8,-0.11 -5.54,-0.33 -3.18,8.73 -6.1,20.21 -8.12,32.63 0.99,0.78 2.06,1.24 3.36,1.37 2.62,0.26 6.29,-0.34 11.5,-1.8 2.55,-0.71 5.21,0.73 6.01,3.25l1.26 4c0.42,1.32 0.29,2.61 -0.37,3.82 -0.66,1.21 -1.67,2.02 -3.01,2.39 -7.01,1.94 -12.31,2.7 -16.78,2.26 -1.39,-0.14 -2.67,-0.37 -3.88,-0.71 -0.55,5.75 -0.88,11.55 -0.92,17.23 -0.14,19.06 2.88,36.4 11.26,45.02 2.62,2.7 5.07,4.14 7.79,4.71 3.17,0.67 7.1,0.38 12.16,-0.43 4.72,-0.75 8.99,-1.3 12.63,-1.16 5.29,0.2 9.47,1.78 12.13,5.66 5.73,8.34 2.02,21.57 -1.51,34.18 -0.74,2.63 -1.47,5.23 -2.07,7.65 -0.63,2.51 -3.1,4.1 -5.65,3.63l-4.12 -0.76c-1.38,-0.25 -2.48,-0.98 -3.24,-2.16 -0.76,-1.18 -0.98,-2.48 -0.64,-3.84l-0 0z"/>
 </g>
</svg>
